<?xml version="1.0" encoding="UTF-8" standalone="no"?> <svg id="Layer_1" data-name="Layer 1" xmlns="http://www.w3.org/2000/svg" viewBox="0 0 64 64"><circle cx="32" cy="5" r="3" fill="#e47272"/><circle cx="13.61522" cy="12.61523" r="3" fill="#8ae6a0"/><circle cx="50.38478" cy="12.61522" r="3" fill="#f2d685"/><path d="M49.99878,31.12524c-2.83063-3.06671-5.23-3.37609-7.3905-2.99633a10.989,10.989,0,0,0-21.5622,1.95764,6.97986,6.97986,0,0,0-7.67633,9.22339A6.90459,6.90459,0,0,0,19.98132,44H44a8,8,0,0,0,7.99774-7.80994A7.29174,7.29174,0,0,0,49.99878,31.12524Z" fill="#5496e4"/><rect x="22" y="36" width="20" height="26" rx="1" fill="#919399"/><rect x="24" y="39" width="16" height="20" rx="0.78446" fill="#c3cccb"/><path d="M31.91406,46a9.4979,9.4979,0,0,0-5.4165,1.68018l1.14453,1.63964a7.6968,7.6968,0,0,1,8.58643-.02246l1.123-1.65429A9.53731,9.53731,0,0,0,31.96777,46Z"/><path d="M24.3042,44.24219,25.396,45.918A11.982,11.982,0,0,1,31.91406,44h.04639a11.84625,11.84625,0,0,1,6.49365,1.898l1.0918-1.67578A14.214,14.214,0,0,0,31.90625,42,13.97876,13.97876,0,0,0,24.3042,44.24219Z"/><path d="M28.66553,50.90283l1.02929,1.71485a4.47236,4.47236,0,0,1,4.46827-.01563l1.01367-1.72363A6.49736,6.49736,0,0,0,28.66553,50.90283Z"/><rect x="31" y="54" width="2" height="2" rx="1"/><path d="M13.52881,32.294A8.08825,8.08825,0,0,0,12.418,39.61621,7.95807,7.95807,0,0,0,19.98,45H21V61a2.002,2.002,0,0,0,2,2H41a2.002,2.002,0,0,0,2-2V45h1a9.05284,9.05284,0,0,0,9-8.78857,8.32922,8.32922,0,0,0-2.26465-5.75928c-2.36572-2.56592-4.68555-3.64258-7.42041-3.42139a11.98652,11.98652,0,0,0-23.13623,1.97217A7.98246,7.98246,0,0,0,13.52881,32.294ZM23,61V37H41l.00146,24ZM21.67383,30.87109a1,1,0,0,0,.37256-.70019,9.9874,9.9874,0,0,1,19.59814-1.7793,1.00285,1.00285,0,0,0,1.13867.72315c1.70166-.29883,3.80225-.21289,6.4834,2.69482A6.317,6.317,0,0,1,51.00049,36.167,7.0406,7.0406,0,0,1,44,43H43V37a2.002,2.002,0,0,0-2-2H23a2.002,2.002,0,0,0-2,2v6H19.98a5.93874,5.93874,0,0,1-5.65771-3.99609,6.1082,6.1082,0,0,1,.82324-5.53223A6.02613,6.02613,0,0,1,20,31a6.30163,6.30163,0,0,1,.90869.08008A1.004,1.004,0,0,0,21.67383,30.87109Z"/><path d="M31,8.858V17h2V8.858a4,4,0,1,0-2,0ZM32,3a2,2,0,1,1-2,2A2.002,2.002,0,0,1,32,3Z"/><path d="M13.61523,16.61523a3.96179,3.96179,0,0,0,2.02124-.56469l5.75708,5.75708,1.41407-1.41407-5.75708-5.75708a3.95879,3.95879,0,0,0-.60718-4.84936,4.09413,4.09413,0,0,0-5.65625,0,4,4,0,0,0,2.82812,6.82812Zm-1.41406-5.41406A1.99979,1.99979,0,1,1,15.0293,14.0293a2.04707,2.04707,0,0,1-2.82813,0,1.99927,1.99927,0,0,1,0-2.82813Z"/><path d="M42.60645,21.80762l5.75708-5.75708a3.99211,3.99211,0,0,0,4.84936-6.26343,4.09413,4.09413,0,0,0-5.65625,0,3.95879,3.95879,0,0,0-.60718,4.84936l-5.75708,5.75708ZM48.9707,11.20117a1.99979,1.99979,0,1,1,2.82813,2.82813,2.04707,2.04707,0,0,1-2.82813,0,1.99929,1.99929,0,0,1,0-2.82813Z"/></svg>