<?xml version="1.0" encoding="iso-8859-1"?>
<!-- Generator: Adobe Illustrator 18.1.1, SVG Export Plug-In . SVG Version: 6.00 Build 0)  -->
<svg version="1.1" id="Capa_1" xmlns="http://www.w3.org/2000/svg" xmlns:xlink="http://www.w3.org/1999/xlink" x="0px" y="0px"
	 viewBox="0 0 198.118 198.118" style="enable-background:new 0 0 198.118 198.118;" xml:space="preserve">
<g>
	<g>
		<g>
			<path style="fill:#010002;" d="M140.821,104.068V82.816l-62.1,23.026V82.816L37.854,97.969V35.053H13.757v71.86L0,112.02v84.715
				h198.118V82.82L140.821,104.068z M19.401,110.839V40.708h12.805v65.389l40.867-15.16v23.03l62.093-23.03v21.255l57.308-21.255
				v80.166H5.644v-55.157L19.401,110.839z M5.644,191.095v-14.33h186.83v14.33H5.644z"/>
			<path style="fill:#010002;" d="M63.203,113.079H35.277v32.16h27.926V113.079z M40.924,139.598V118.73h16.634v20.868H40.924z"/>
			<path style="fill:#010002;" d="M124.161,113.079H96.239v32.16h27.922V113.079z M101.883,139.598V118.73h16.627v20.868H101.883z"
				/>
			<path style="fill:#010002;" d="M182.364,113.079h-27.933v32.16h27.933V113.079z M160.086,139.598V118.73h16.627v20.868H160.086z"
				/>
		</g>
		<g>
			<path style="fill:#010002;" d="M25.224,26.507c0.956-10.486,6.467-11.334,13.027-11.334c1.099,0,2.237,0.036,3.418,0.057
				c1.17,0.039,2.373,0.075,3.582,0.075c7.451,0,14.92-1.278,19.036-10.543l0.236-0.54l-3.167-1.399L61.12,3.355
				c-3.139,7.057-8.364,8.478-15.786,8.478c-1.167,0-2.355-0.036-3.582-0.068c-1.131-0.021-2.269-0.057-3.4-0.057
				c-7.38,0-15.36,1.12-16.574,14.484l-0.057,0.576l3.454,0.311L25.224,26.507z"/>
			<path style="fill:#010002;" d="M26.158,28.264l-5.626-0.508l0.161-1.671c1.392-15.428,11.474-15.665,21.09-15.407
				c1.21,0.029,2.394,0.064,3.547,0.064c7.165,0,11.875-1.278,14.791-7.831l0.687-1.528l5.146,2.29l-0.673,1.517
				c-5.096,11.477-15.228,11.356-23.649,11.127c-1.238-0.029-2.337-0.061-3.382-0.061c-6.438,0-11.066,0.744-11.946,10.343
				L26.158,28.264z M22.915,25.78l1.274,0.118c1.185-10.887,7.591-11.81,14.061-11.81c1.07,0,2.172,0.029,3.321,0.057
				c9.913,0.261,17.282-0.379,21.512-9.366L61.9,4.261c-3.396,7.176-9.087,8.664-16.57,8.664c-1.17,0-2.373-0.036-3.604-0.068
				C33.505,12.639,24.39,11.923,22.915,25.78z"/>
		</g>
	</g>
</g>
<g>
</g>
<g>
</g>
<g>
</g>
<g>
</g>
<g>
</g>
<g>
</g>
<g>
</g>
<g>
</g>
<g>
</g>
<g>
</g>
<g>
</g>
<g>
</g>
<g>
</g>
<g>
</g>
<g>
</g>
</svg>
