<?xml version="1.0" encoding="iso-8859-1"?>
<!-- Generator: Adobe Illustrator 19.0.0, SVG Export Plug-In . SVG Version: 6.00 Build 0)  -->
<svg version="1.1" id="Layer_1" xmlns="http://www.w3.org/2000/svg" xmlns:xlink="http://www.w3.org/1999/xlink" x="0px" y="0px"
	 viewBox="0 0 512 512" style="enable-background:new 0 0 512 512;" xml:space="preserve">
<g>
	<g>
		<path d="M446.735,124.803h-64.501V71.384c0-22.787-18.538-41.326-41.326-41.326H178.824c-22.787,0-41.324,18.538-41.324,41.326
			v53.419H65.265C29.278,124.803,0,154.081,0,190.068v226.611c0,35.987,29.278,65.263,65.265,65.263h316.739
			c5.111,0,9.255-4.144,9.255-9.255s-4.144-9.255-9.255-9.255H65.265c-25.78,0-46.754-20.973-46.754-46.753V190.068
			c0-25.78,20.974-46.754,46.754-46.754h381.471c25.78,0,46.754,20.974,46.754,46.754v226.611c0,25.78-20.974,46.753-46.754,46.753
			h-32.648c-5.111,0-9.255,4.144-9.255,9.255s4.144,9.255,9.255,9.255h32.648c35.987,0,65.265-29.278,65.265-65.263V190.068
			C512,154.081,482.722,124.803,446.735,124.803z M363.725,124.803H156.01V71.384c0-12.58,10.234-22.815,22.814-22.815H340.91
			c12.58,0,22.815,10.234,22.815,22.815V124.803z"/>
	</g>
</g>
<g>
	<g>
		<path d="M256.001,167.47c-23.827,0-47.274,6.258-67.803,18.097c-4.428,2.553-5.948,8.214-3.394,12.642
			c2.553,4.429,8.214,5.948,12.642,3.394c17.722-10.22,37.97-15.622,58.557-15.622c64.73,0,117.392,52.661,117.392,117.392
			s-52.661,117.392-117.392,117.392s-117.393-52.661-117.393-117.392c0-32.738,13.144-63.122,37.01-85.556
			c3.724-3.501,3.906-9.358,0.405-13.083c-3.502-3.724-9.36-3.904-13.083-0.404c-27.227,25.592-42.843,61.692-42.843,99.043
			c0,74.937,60.967,135.902,135.904,135.902s135.902-60.965,135.902-135.902S330.938,167.47,256.001,167.47z"/>
	</g>
</g>
<g>
	<g>
		<path d="M329.475,306.213c5.111,0,9.255-4.144,9.255-9.255v-31.29c0-5.111-4.144-9.255-9.255-9.255H302.96v-26.515
			c0-5.111-4.144-9.255-9.255-9.255h-75.409c-5.111,0-9.255,4.144-9.255,9.255v26.515h-26.516c-5.111,0-9.255,4.144-9.255,9.255
			v75.409c0,5.111,4.144,9.255,9.255,9.255h26.516v26.516c0,5.111,4.144,9.255,9.255,9.255h75.409c5.111,0,9.255-4.144,9.255-9.255
			v-26.516h26.516c5.111,0,9.255-4.144,9.255-9.255V327.81c0-5.111-4.144-9.255-9.255-9.255s-9.255,4.144-9.255,9.255v4.011h-26.516
			c-5.111,0-9.255,4.144-9.255,9.255v26.516h-56.898v-26.516c0-5.111-4.144-9.255-9.255-9.255H191.78v-56.898h26.516
			c5.111,0,9.255-4.144,9.255-9.255v-26.515h56.898v26.515c0,5.111,4.144,9.255,9.255,9.255h26.516v22.035
			C320.22,302.069,324.364,306.213,329.475,306.213z"/>
	</g>
</g>
<g>
</g>
<g>
</g>
<g>
</g>
<g>
</g>
<g>
</g>
<g>
</g>
<g>
</g>
<g>
</g>
<g>
</g>
<g>
</g>
<g>
</g>
<g>
</g>
<g>
</g>
<g>
</g>
<g>
</g>
</svg>
