<?xml version="1.0" standalone="no"?>
<!DOCTYPE svg PUBLIC "-//W3C//DTD SVG 20010904//EN"
 "http://www.w3.org/TR/2001/REC-SVG-20010904/DTD/svg10.dtd">
<svg version="1.0" xmlns="http://www.w3.org/2000/svg"
 width="500.000000pt" height="500.000000pt" viewBox="0 0 500.000000 500.000000"
 preserveAspectRatio="xMidYMid meet">

<g transform="translate(0.000000,500.000000) scale(0.100000,-0.100000)"
fill="#000000" stroke="none">
<path d="M3505 3148 c-87 -30 -130 -96 -123 -186 7 -78 28 -99 163 -167 140
-70 160 -92 160 -169 -1 -67 -29 -108 -90 -132 -56 -21 -135 -15 -193 15 -46
23 -52 25 -52 12 0 -5 24 -19 53 -32 181 -79 381 47 337 211 -17 64 -56 99
-166 151 -122 57 -154 90 -154 156 0 91 59 139 160 130 31 -2 71 -12 89 -22
25 -12 32 -13 29 -3 -6 18 -94 47 -143 47 -22 0 -53 -5 -70 -11z"/>
<path d="M1330 2828 c-79 -178 -145 -327 -148 -332 -3 -5 1 -7 9 -4 7 2 39 60
69 129 l56 124 129 0 129 0 55 -127 54 -128 40 0 c31 0 38 3 33 15 -23 61
-270 632 -275 638 -4 4 -72 -138 -151 -315z m179 69 c28 -65 51 -121 51 -123
0 -2 -52 -4 -116 -4 -89 0 -115 3 -111 13 35 90 112 246 118 240 4 -4 31 -61
58 -126z"/>
<path d="M2827 3140 c-100 -26 -181 -91 -219 -178 -29 -65 -35 -183 -13 -257
28 -100 78 -154 182 -203 51 -23 70 -26 158 -26 88 0 107 3 158 26 32 15 70
37 84 48 77 61 118 167 111 289 -11 190 -130 300 -333 307 -49 2 -107 -1 -128
-6z m225 -29 c51 -19 116 -89 139 -149 31 -81 30 -224 -1 -306 -45 -118 -141
-174 -281 -164 -167 12 -251 118 -251 318 0 102 22 174 68 228 76 90 208 119
326 73z"/>
<path d="M1840 3136 c0 -3 45 -82 100 -175 55 -93 100 -172 100 -175 0 -3 -38
-68 -85 -146 -47 -78 -85 -143 -85 -146 0 -21 27 16 95 131 44 74 83 135 86
135 4 0 42 -61 85 -135 l79 -135 43 0 c38 0 42 2 33 18 -5 9 -50 87 -100 172
-50 85 -91 158 -91 162 0 4 38 71 85 149 47 78 83 144 80 147 -7 7 -4 12 -101
-151 l-77 -128 -81 138 -82 138 -42 3 c-23 2 -42 1 -42 -2z"/>
<path d="M2400 2815 l0 -325 35 0 35 0 0 325 0 325 -35 0 -35 0 0 -325z"/>
</g>
</svg>
