<?xml version="1.0" standalone="no"?>
<!DOCTYPE svg PUBLIC "-//W3C//DTD SVG 20010904//EN"
 "http://www.w3.org/TR/2001/REC-SVG-20010904/DTD/svg10.dtd">
<svg version="1.0" xmlns="http://www.w3.org/2000/svg"
 width="1072.000000pt" height="318.000000pt" viewBox="0 0 1072.000000 318.000000"
 preserveAspectRatio="xMidYMid meet">
<metadata>
Created by potrace 1.16, written by Peter Selinger 2001-2019
</metadata>
<g transform="translate(0.000000,318.000000) scale(0.100000,-0.100000)"
fill="#000000" stroke="none">
<path d="M9385 2855 c-223 -48 -420 -187 -505 -356 -53 -103 -64 -160 -64
-324 -1 -167 12 -227 66 -325 95 -170 224 -257 642 -430 186 -77 255 -111 332
-166 170 -120 252 -304 225 -504 -34 -251 -164 -404 -411 -482 -65 -20 -95
-23 -220 -23 -238 1 -375 41 -571 166 -42 27 -79 49 -83 49 -4 0 -6 -23 -4
-52 l3 -52 90 -48 c115 -60 247 -104 355 -117 125 -16 366 -14 450 4 154 32
319 122 430 235 85 86 130 156 167 262 34 95 43 293 19 406 -51 240 -221 395
-624 567 -376 161 -534 269 -597 408 -79 175 -44 414 84 558 54 61 118 101
216 135 70 24 95 28 200 27 171 0 366 -49 485 -122 54 -33 72 -29 68 17 -3 35
-6 39 -78 75 -100 50 -210 84 -311 97 -112 14 -290 11 -364 -5z"/>
<path d="M1412 2823 c-11 -21 -178 -393 -372 -828 -194 -434 -444 -995 -556
-1246 -112 -251 -204 -459 -204 -463 0 -3 24 -6 53 -6 l53 0 224 510 224 510
395 -1 c218 -1 438 -4 489 -8 l94 -6 212 -500 213 -500 161 -3 c89 -1 162 -1
162 1 0 12 -923 2161 -1057 2461 -27 60 -54 111 -61 114 -6 2 -20 -14 -30 -35z
m-31 -540 c23 -54 120 -278 215 -498 l172 -400 -440 -3 c-243 -1 -443 0 -445
2 -10 10 433 996 447 996 4 0 27 -44 51 -97z"/>
<path d="M6900 2849 c-115 -10 -225 -34 -347 -74 -451 -150 -736 -477 -819
-940 -14 -75 -18 -150 -18 -300 1 -295 27 -420 132 -630 102 -205 202 -321
380 -439 264 -176 511 -245 869 -246 282 0 466 37 672 136 161 77 271 153 381
264 230 233 330 505 330 902 0 431 -87 679 -327 929 -146 152 -265 232 -448
303 -217 83 -533 120 -805 95z m340 -79 c354 -44 645 -243 797 -545 42 -82 89
-218 110 -317 26 -122 26 -645 0 -766 -37 -167 -93 -307 -170 -426 -155 -237
-401 -381 -712 -416 -545 -61 -967 160 -1144 597 -70 173 -101 357 -101 603 0
334 29 497 124 695 63 130 117 205 224 307 225 215 532 309 872 268z"/>
<path d="M5010 1550 l0 -1270 155 0 155 0 0 1270 0 1270 -155 0 -155 0 0
-1270z"/>
<path d="M2834 2793 c4 -10 180 -313 392 -675 211 -362 387 -664 390 -672 3
-8 -109 -206 -259 -458 -335 -561 -386 -651 -389 -680 -3 -19 1 -23 27 -23 29
0 41 18 348 530 175 292 321 531 325 532 4 1 147 -237 319 -530 l311 -532 177
-3 177 -2 -27 47 c-16 27 -196 335 -402 686 l-374 639 269 451 c348 584 412
693 412 701 0 4 -17 6 -37 4 -34 -3 -42 -10 -83 -69 -25 -37 -167 -267 -314
-511 -148 -245 -275 -453 -282 -463 -14 -18 -14 -18 -28 1 -8 10 -150 250
-316 532 l-302 512 -170 0 c-156 0 -170 -1 -164 -17z"/>
</g>
</svg>
