<?xml version="1.0" standalone="no"?>
<!DOCTYPE svg PUBLIC "-//W3C//DTD SVG 20010904//EN"
 "http://www.w3.org/TR/2001/REC-SVG-20010904/DTD/svg10.dtd">
<svg version="1.0" xmlns="http://www.w3.org/2000/svg"
 width="990.000000pt" height="307.000000pt" viewBox="0 0 990.000000 307.000000"
 preserveAspectRatio="xMidYMid meet">

<g transform="translate(0.000000,307.000000) scale(0.100000,-0.100000)"
fill="#000000" stroke="none">
<path d="M7651 2820 c-234 -49 -396 -186 -446 -375 -19 -73 -19 -232 -1 -301
32 -122 113 -222 239 -296 39 -23 152 -75 250 -115 224 -91 287 -125 359 -191
101 -94 141 -220 119 -371 -40 -267 -260 -408 -581 -373 -146 16 -235 48 -356
128 -28 19 -54 34 -58 34 -3 0 -6 -15 -6 -34 0 -32 4 -36 78 -74 139 -72 227
-94 394 -100 180 -6 259 10 389 75 157 78 264 204 305 358 18 65 18 226 0 291
-48 181 -184 298 -498 427 -381 158 -487 268 -476 496 7 150 81 272 202 331
82 40 161 54 274 46 100 -6 243 -47 319 -92 23 -13 44 -24 47 -24 3 0 6 13 6
29 0 25 -7 31 -67 59 -126 57 -198 74 -328 78 -66 2 -140 -1 -164 -6z"/>
<path d="M1470 2801 c-5 -11 -204 -455 -441 -988 -237 -532 -433 -971 -436
-975 -2 -5 13 -8 34 -8 l38 0 174 395 174 395 380 -2 380 -3 166 -390 166
-390 122 -3 121 -3 -426 996 c-235 547 -430 995 -434 995 -4 0 -12 -9 -18 -19z
m109 -736 l168 -390 -350 -3 c-193 -1 -351 -1 -353 1 -2 2 76 184 174 405 111
252 180 397 185 389 5 -7 84 -187 176 -402z"/>
<path d="M5655 2805 c-366 -57 -627 -235 -765 -520 -51 -106 -79 -213 -93
-362 -12 -137 -1 -317 28 -433 24 -93 115 -274 176 -348 100 -123 284 -245
454 -301 231 -75 542 -80 779 -10 176 52 381 182 482 307 159 196 221 404 211
707 -10 305 -84 491 -267 675 -142 143 -296 223 -516 270 -129 27 -363 35
-489 15z m419 -65 c318 -81 519 -293 599 -633 29 -125 31 -474 4 -610 -70
-345 -257 -558 -562 -638 -113 -29 -311 -36 -431 -15 -382 66 -604 321 -655
750 -15 127 -6 406 16 506 38 173 113 316 220 426 132 135 297 213 505 238 66
8 230 -5 304 -24z"/>
<path d="M4250 1810 l0 -980 115 0 115 0 0 980 0 980 -115 0 -115 0 0 -980z"/>
<path d="M2574 2758 c7 -13 147 -251 310 -530 l296 -506 -265 -444 c-254 -426
-264 -443 -239 -446 14 -2 27 -2 29 0 2 2 116 192 254 421 l249 418 52 -88
c29 -48 140 -238 247 -420 l195 -333 129 0 130 0 -12 23 c-14 25 -537 918
-579 988 l-28 47 264 442 c145 244 264 444 264 446 0 2 -13 4 -29 4 -27 0 -42
-23 -277 -415 -137 -228 -251 -415 -254 -415 -3 0 -115 187 -248 415 l-244
415 -129 0 -129 0 14 -22z"/>
<path d="M6880 510 c0 -5 14 -10 31 -10 28 0 30 -2 25 -27 -13 -64 -27 -196
-22 -201 11 -10 14 3 25 88 19 140 19 140 52 140 16 0 29 5 29 10 0 6 -30 10
-70 10 -40 0 -70 -4 -70 -10z"/>
<path d="M7091 428 c-7 -46 -14 -102 -17 -125 l-6 -43 71 0 c41 0 71 4 71 10
0 6 -27 10 -60 10 l-61 0 6 38 c10 60 11 61 67 65 l53 3 -52 2 c-51 2 -53 3
-53 30 0 65 7 72 71 72 33 0 59 4 59 10 0 6 -30 10 -69 10 l-69 0 -11 -82z"/>
<path d="M7357 499 c-27 -16 -47 -65 -54 -132 -4 -52 -2 -66 14 -85 28 -35 89
-33 120 3 24 27 30 55 14 55 -5 0 -13 -9 -16 -20 -11 -34 -51 -55 -80 -42 -32
15 -40 51 -26 119 13 66 34 93 71 93 32 0 50 -17 50 -47 0 -13 5 -23 10 -23
16 0 12 57 -6 74 -17 18 -70 21 -97 5z"/>
<path d="M7561 413 c-6 -54 -14 -110 -17 -125 -3 -16 -1 -28 5 -28 5 0 13 17
16 38 14 87 10 82 71 82 l55 0 -7 -60 c-4 -38 -3 -60 3 -60 6 0 16 44 22 98 7
53 14 109 17 125 3 15 1 27 -5 27 -9 0 -17 -28 -23 -90 -3 -23 -7 -25 -61 -28
l-58 -3 7 60 c4 37 3 61 -3 61 -5 0 -15 -44 -22 -97z"/>
<path d="M7826 488 c-7 -31 -26 -187 -26 -210 0 -10 4 -18 9 -18 4 0 11 30 15
68 4 37 10 83 14 102 8 34 8 33 51 -68 25 -56 50 -102 56 -102 12 0 50 238 40
249 -11 10 -17 -11 -27 -103 -7 -53 -14 -96 -18 -96 -3 0 -24 44 -47 97 -42
101 -59 121 -67 81z"/>
<path d="M8113 495 c-43 -30 -66 -186 -32 -220 35 -36 110 -19 133 30 33 69
33 157 0 189 -20 20 -73 21 -101 1z m93 -22 c13 -14 15 -28 10 -75 -7 -72 -29
-116 -60 -124 -56 -14 -82 33 -66 116 5 25 9 48 10 53 0 4 9 16 20 27 24 24
63 26 86 3z"/>
<path d="M8350 510 c-1 -3 -10 -60 -19 -127 l-17 -123 63 0 c35 0 63 4 63 10
0 6 -22 10 -50 10 -58 0 -57 -2 -39 110 9 58 8 137 -1 120z"/>
<path d="M8577 490 c-49 -38 -66 -180 -27 -215 26 -23 84 -23 109 -1 43 39 56
181 21 216 -26 26 -70 26 -103 0z m91 -12 c18 -18 15 -118 -6 -158 -39 -79
-112 -58 -112 32 0 50 22 117 43 130 18 12 62 9 75 -4z"/>
<path d="M8843 498 c-50 -24 -75 -180 -35 -220 22 -22 77 -27 109 -9 19 10 33
49 33 92 0 14 -7 19 -30 19 -16 0 -30 -4 -30 -10 0 -5 9 -10 20 -10 22 0 25
-16 10 -54 -12 -33 -52 -43 -85 -22 -22 14 -25 24 -25 72 0 93 37 144 97 132
10 -2 22 -17 28 -36 11 -38 25 -42 25 -7 0 52 -61 80 -117 53z"/>
<path d="M9066 478 c-27 -166 -31 -218 -17 -218 5 0 14 44 20 98 7 53 14 109
17 125 3 15 1 27 -5 27 -5 0 -12 -15 -15 -32z"/>
<path d="M9190 503 c0 -5 -7 -53 -15 -108 -21 -146 -26 -135 50 -135 37 0 65
4 65 10 0 6 -25 10 -55 10 -60 0 -60 0 -46 65 6 27 10 31 56 36 l50 6 -47 1
c-48 2 -48 2 -48 36 0 60 6 66 72 66 37 0 57 4 53 10 -7 11 -135 14 -135 3z"/>
<path d="M9426 489 c-21 -16 -26 -28 -24 -52 3 -31 5 -33 88 -71 36 -17 35
-65 -2 -86 -25 -13 -31 -13 -55 0 -16 9 -29 26 -31 38 -4 27 -22 30 -22 3 0
-38 33 -63 80 -63 50 1 80 26 80 67 0 41 -11 55 -54 66 -50 13 -66 26 -66 50
0 26 27 49 59 49 31 0 51 -16 51 -41 0 -10 5 -21 10 -24 17 -10 11 52 -6 69
-22 23 -76 20 -108 -5z"/>
</g>
</svg>
